<?xml version="1.0" encoding="utf-8"?>
<!-- Generator: Adobe Illustrator 17.0.0, SVG Export Plug-In . SVG Version: 6.00 Build 0)  -->
<!DOCTYPE svg PUBLIC "-//W3C//DTD SVG 1.1//EN" "http://www.w3.org/Graphics/SVG/1.1/DTD/svg11.dtd">
<svg version="1.1" xmlns="http://www.w3.org/2000/svg" xmlns:xlink="http://www.w3.org/1999/xlink" x="0px" y="0px"
	 width="392.146px" height="447.31px" viewBox="0 0 392.146 447.31" enable-background="new 0 0 392.146 447.31"
	 xml:space="preserve">
<g id="OBJECTS">
	<g>
		<g>
			<path opacity="0.29" fill="#76EFF8" d="M325.31,255.084c-115.409,105.037-287.995,36.358-294.691-0.103
				C23.91,218.521,134.011,29.176,221.39,32.826c25.485,1.067,46.845,8.315,64.323,18.057c0.026,0.013,0.051,0.026,0.077,0.039
				c31.423,17.543,50.263,43.13,57.897,55.185c0.039,0.039,0.064,0.077,0.09,0.116C371.499,144.752,386.844,199.089,325.31,255.084z
				"/>
			<rect x="241.227" y="79.261" fill="#C1B4F9" width="88.936" height="53.957"/>
			<rect x="241.227" y="59.391" opacity="0.75" fill="#00EBE2" width="91.015" height="14.556"/>
			
				<rect x="244.311" y="51.703" fill="none" stroke="#FFFFFF" stroke-width="0.25" stroke-miterlimit="10" width="92.343" height="72.99"/>
			<ellipse opacity="0.63" fill="#E6E9E9" cx="209.783" cy="404.8" rx="168.938" ry="16.231"/>
			<rect x="279.651" y="254.984" fill="#CDD2D2" width="8.404" height="16.793"/>
			<path fill="#FEAF66" d="M311.708,298.29h-80.923c-7.291,0-13.256-5.965-13.256-13.256v0c0-7.291,5.965-13.256,13.256-13.256
				h80.923c7.291,0,13.256,5.965,13.256,13.256v0C324.964,292.324,318.999,298.29,311.708,298.29z"/>
			<path fill="#FEAF66" d="M300.896,255.085H285.38c-10.918,0-19.852-8.933-19.852-19.852v-72.197
				c0-10.918,8.933-19.852,19.852-19.852h15.516c10.918,0,19.852,8.933,19.852,19.852v72.197
				C320.748,246.151,311.814,255.085,300.896,255.085z"/>
			<path fill="#FFC477" d="M293.453,255.085h-15.516c-10.918,0-19.852-8.933-19.852-19.852v-72.197
				c0-10.918,8.933-19.852,19.852-19.852h15.516c10.918,0,19.852,8.933,19.852,19.852v72.197
				C313.304,246.151,304.371,255.085,293.453,255.085z"/>
			<path opacity="0.26" fill="#76EFF8" d="M320.69,303.141c0,0-22.642,13.863-40.201,21.372
				c-17.559,7.508-17.559,37.197,28.649,26.916s42.974-25.761,42.281-32.577C350.725,312.037,336.054,292.745,320.69,303.141z"/>
			<path fill="#FFC477" d="M302.178,298.29h-80.923c-7.291,0-13.256-5.965-13.256-13.256v0c0-7.291,5.965-13.256,13.256-13.256
				h80.923c7.291,0,13.256,5.965,13.256,13.256v0C315.434,292.324,309.469,298.29,302.178,298.29z"/>
			<path fill="none" d="M292.743,138.815c0,0,0.013,0,0.039,0"/>
			<path fill="#CDD2D2" d="M134.463,255.085l11.516,139.329c0.143,1.443,2.279,1.337,2.279-0.113V255.085H134.463z"/>
			<path fill="#CDD2D2" d="M281.211,254.984l11.409,138.029c0.143,1.443,2.279,1.337,2.279-0.113V255.085L281.211,254.984z"/>
			<line fill="none" x1="220.773" y1="143.043" x2="220.761" y2="143.184"/>
			<line fill="none" x1="209.605" y1="147.091" x2="209.605" y2="147.04"/>
			<line fill="none" x1="189.222" y1="197.097" x2="188.323" y2="197.971"/>
			<polyline fill="none" points="255.447,232.787 262.76,232.787 259.47,228.635 			"/>
			<line fill="none" x1="203.526" y1="287.368" x2="203.526" y2="286.854"/>
			<path fill="#FFC477" d="M172.027,298.947c-0.013,0.013-0.013,0.026-0.026,0.026v-0.013L172.027,298.947z"/>
			<path opacity="0.84" fill="#7CE3E1" d="M114.425,153.928c-4.087,4.832,3.47,7.955,3.47,7.955
				c-30.42-3.316-39.828-15.062-39.828-15.062c-2.969-3.059-4.704-6.709-4.704-10.641c0-10.757,12.993-19.496,29.019-19.496
				c16.026,0,29.019,8.739,29.019,19.496c0,7.878-6.966,14.664-16.977,17.735V153.928z"/>
			<path opacity="0.84" fill="#7CE3E1" d="M161.964,110.232c0,2.506-1.092,4.845-3.007,6.799c0,0-0.09,0.116-0.296,0.321
				c-1.414,1.478-8.148,7.467-25.177,9.318c0,0,4.832-2.005,2.223-5.089c-6.4-1.966-10.86-6.31-10.86-11.348
				c0-6.889,8.315-12.466,18.558-12.466C153.662,97.766,161.964,103.344,161.964,110.232z"/>
			<rect x="256.691" y="298.29" fill="#969FA3" width="6.238" height="74.858"/>
			<g>
				<path fill="#969FA3" d="M301.051,390.201c-0.158,0-0.318-0.029-0.473-0.09c-0.66-0.261-0.983-1.008-0.722-1.668
					c0.029-0.08,0.818-2.303-1.015-4.936c-2.361-3.389-10.436-9.074-37.99-9.074c-27.098,0-34.519,5.486-36.531,8.757
					c-1.653,2.687-0.5,5.038-0.449,5.137c0.318,0.63,0.072,1.403-0.555,1.727c-0.63,0.323-1.396,0.085-1.724-0.537
					c-0.078-0.148-1.88-3.662,0.497-7.603c4.021-6.669,17.064-10.05,38.762-10.05c22.019,0,35.533,3.458,40.168,10.275
					c2.56,3.766,1.283,7.111,1.227,7.252C302.046,389.894,301.562,390.201,301.051,390.201z"/>
			</g>
			<ellipse fill="#32303F" cx="223.988" cy="392.526" rx="4.335" ry="3.956"/>
			<ellipse fill="#32303F" cx="299.935" cy="392.526" rx="4.335" ry="3.956"/>
			<path fill="#969FA3" d="M262.929,373.147h-6.238c0,0,1.892,26.026,3.307,26.796S262.929,373.147,262.929,373.147z"/>
			<ellipse fill="#32303F" cx="259.81" cy="398.808" rx="4.899" ry="4.472"/>
			<path fill="none" stroke="#FFC2C2" stroke-miterlimit="10" d="M90.876,447.31c0,0-0.695-0.43-1.969-1.257"/>
			<g>
				<path fill="#41709E" d="M306.764,210.811c-1.876,13.109-14.008,23.75-27.22,24.714c-3.945,0.283-8.289-0.488-11.489-2.609
					l-6.423-0.13h-44.534L195.34,180.25l-27.991,18.661c-5.423-6.233-12.094-12.505-13.122-20.691
					c-0.501-3.971,1.092-9.33,2.943-12.89c3.791-7.338,13.97-10.32,16.245-18.262c1.041-3.624,0.128-7.493-0.733-11.155
					c-2.596-11.027-4.729-22.966-0.283-33.389c2.043-4.794,5.321-8.803,9.356-11.991c6.734-5.321,15.563-8.379,24.213-9.112
					c4.794-0.398,9.754-0.193,14.163,1.722c8.572,3.727,13.225,12.955,16.412,21.732c3.2,8.765,5.899,18.249,12.698,24.65
					c5.963,5.616,14.188,7.981,21.475,11.721c7.287,3.753,13.983,9.24,17.517,16.643c3.521,7.39,3.329,16.887-1.889,23.21
					C299.336,183.694,308.641,197.69,306.764,210.811z"/>
				<path fill="#E2BD98" d="M220.761,143.184l-0.219,2.48l-0.938,10.885c0,0-3.637,9.061-7.043,8.199
					c-3.406-0.874-2.956-5.089-2.956-5.089v-12.569c2.647-0.308,5.244-0.964,7.621-2.005
					C218.473,144.559,219.655,143.917,220.761,143.184z"/>
				<path fill="#A69AEF" d="M187.95,195.619c0.077,0.848,0.206,1.632,0.373,2.352l-34.099,34.815h-17.8
					c0,0,17.327-22.902,30.925-39.378c8.495-10.294,16.206-19.38,18.879-21.732c4.305-3.791,12.273-7.505,17.697-9.78
					C203.423,162.552,186.87,184.271,187.95,195.619z"/>
				<path fill="#5F4BB5" d="M269.636,276.11c-8.238,11.618-40.971,12.608-66.109,10.744v-38.131
					c20.267-3.329,44.531-4.434,66.109,1.285C269.636,250.008,282.565,257.86,269.636,276.11z"/>
				<path fill="#FFE8CC" d="M203.526,248.723v38.131c-4.113-0.308-8.019-0.681-11.579-1.105c-8.868-1.054-15.602-2.365-18.057-3.406
					c0,0,3.252,9.099-1.864,16.605c-0.013,0.013-0.013,0.026-0.026,0.026c-1.324,1.941-3.226,3.778-5.873,5.321
					c-10.718,6.22-53.913,43.812-68.448,56.548c-3.007,2.647-4.794,4.215-4.794,4.215L63.314,343.8c0,0,13.623-6.117,31.423,13.636
					c0,0,59.028-90.335,65.145-95.656C163.12,258.978,180.804,252.463,203.526,248.723z"/>
				<path fill="#FFE8CC" d="M207.999,385.452l-28.762,4.331c0,0-2.519-7.197,21.835-10.23l-29.071-80.581
					c0.013,0,0.013-0.013,0.026-0.026c5.115-7.505,1.864-16.605,1.864-16.605c2.455,1.041,9.189,2.352,18.057,3.406v0.013
					c0,0,7.827,3.251,8.084,18.943C200.288,320.384,207.999,385.452,207.999,385.452z"/>
				<path fill="#C1B4F9" d="M221.299,384.599c2.699,2.753-54.176,14.715-54.176,14.715s-6.63-6.966-1.878-15.07
					c1.545-2.632,4.111-4.303,6.87-5.385c-0.329-0.453-9.029-12.21-6.574-19.716c2.429-7.424,8.407,19.11,8.407,19.11
					s0,0,0.009-0.009c0.052-0.673,1.431-14.936,6.519-20.387c5.216-5.561-3.877,19.77-3.877,19.77
					c4.223-0.787,7.85-0.554,7.85-0.554l3.519,11.248l19.972-3.348l0.103-1.654C208.045,383.317,218.591,381.854,221.299,384.599z"
					/>
				<linearGradient id="SVGID_1_" gradientUnits="userSpaceOnUse" x1="175.7672" y1="696.7687" x2="175.7672" y2="156.0911">
					<stop  offset="0" style="stop-color:#FFECE8"/>
					<stop  offset="1" style="stop-color:#FFFFFF"/>
				</linearGradient>
				<path fill="url(#SVGID_1_)" d="M177.125,384.885c0.256,1.234-0.145,2.36-0.895,2.515s-1.565-0.719-1.82-1.953
					c-0.256-1.234,0.145-2.36,0.895-2.515C176.054,382.777,176.869,383.651,177.125,384.885z"/>
				<linearGradient id="SVGID_2_" gradientUnits="userSpaceOnUse" x1="169.6606" y1="696.7687" x2="169.6606" y2="156.0911">
					<stop  offset="0" style="stop-color:#FFECE8"/>
					<stop  offset="1" style="stop-color:#FFFFFF"/>
				</linearGradient>
				<path fill="url(#SVGID_2_)" d="M171.018,386.15c0.256,1.234-0.145,2.36-0.895,2.515c-0.75,0.155-1.565-0.719-1.82-1.953
					c-0.256-1.234,0.145-2.36,0.895-2.515C169.947,384.042,170.762,384.916,171.018,386.15z"/>
				<path fill="#C1B4F9" d="M102.563,374.271c-0.051,3.855-48.618-28.068-48.618-28.068s0.27-9.613,9.369-11.952
					c2.956-0.758,5.95-0.116,8.662,1.08c0.09-0.553,2.3-15.011,9.356-18.558c6.979-3.509-7.634,19.432-7.634,19.432s0,0,0.013,0
					c0.514-0.437,11.605-9.51,19.059-9.742c7.621-0.218-16.759,11.181-16.759,11.181c3.534,2.442,5.925,5.179,5.925,5.179
					l-5.501,10.423l16.45,11.811l1.247-1.092C94.132,363.964,102.602,370.416,102.563,374.271z"/>
				<linearGradient id="SVGID_3_" gradientUnits="userSpaceOnUse" x1="70.0736" y1="696.7687" x2="70.0736" y2="156.0911">
					<stop  offset="0" style="stop-color:#FFECE8"/>
					<stop  offset="1" style="stop-color:#FFFFFF"/>
				</linearGradient>
				<path fill="url(#SVGID_3_)" d="M71.23,343.132c-0.695,1.051-1.777,1.56-2.415,1.138s-0.592-1.617,0.103-2.668
					c0.695-1.051,1.777-1.56,2.415-1.138C71.971,340.887,71.925,342.081,71.23,343.132z"/>
				<linearGradient id="SVGID_4_" gradientUnits="userSpaceOnUse" x1="64.8727" y1="696.7687" x2="64.8727" y2="156.0911">
					<stop  offset="0" style="stop-color:#FFECE8"/>
					<stop  offset="1" style="stop-color:#FFFFFF"/>
				</linearGradient>
				<path fill="url(#SVGID_4_)" d="M66.029,339.691c-0.695,1.051-1.777,1.56-2.415,1.138c-0.639-0.422-0.592-1.617,0.103-2.668
					s1.777-1.56,2.415-1.138C66.77,337.446,66.724,338.64,66.029,339.691z"/>
				<path fill="#C1B4F9" d="M255.447,232.786h-49.081l-4.5-14.838l-3.314-11.495c0,0-9.626-1.484-11.696-10.609
					c-0.167-0.72-0.296-1.504-0.373-2.352c-1.08-11.348,16.939-30.941,17.44-31.596c0.013-0.013,0.013-0.013,0.013-0.013
					c3.303-1.375,5.668-2.223,5.668-2.223s-0.45,4.215,2.956,5.089c3.406,0.861,7.043-8.199,7.043-8.199l9.253,3.11l0.27-0.039
					C232.07,179.387,240.514,226.129,255.447,232.786z"/>
				<path fill="#FFE8CC" d="M228.613,138.726c-0.386,0.874-0.81,1.761-1.26,2.647c-1.581,3.084-3.868,5.513-6.593,7.313
					c-1.105,0.733-2.288,1.375-3.534,1.902c-2.378,1.041-4.974,1.696-7.621,2.005c-12.466,1.465-26.41-4.742-28.004-16.309
					c-2.455-17.902-3.817-10.795-4.382-23.57c-0.27-5.835,1.876-10.796,4.28-14.458h0.013c0,0,21.128,19.702,49.711,14.278
					C233.317,120.335,233.021,128.894,228.613,138.726z"/>
				<circle fill="#FFC2C2" cx="217.957" cy="131.836" r="4.51"/>
				<circle fill="#FFC2C2" cx="187.899" cy="136.682" r="4.51"/>
				<g>
					<path fill="#D8B187" d="M196.418,135.758c-0.095,0-0.189-0.033-0.263-0.095c-0.099-0.081-0.153-0.202-0.15-0.329l0.271-10.301
						c0.006-0.225,0.191-0.403,0.414-0.403c0.003,0,0.006,0,0.011,0c0.228,0.006,0.409,0.196,0.402,0.424l-0.257,9.774l3.945-0.855
						c0.22-0.048,0.443,0.093,0.491,0.317c0.048,0.223-0.094,0.443-0.317,0.491l-4.46,0.967
						C196.476,135.755,196.447,135.758,196.418,135.758z"/>
				</g>
				<path fill="#F9DCBB" d="M234.515,155.603l-5.886,3.47c0,0-4.254-1.735-4.858-6.413c0,0-1.144,0.848-2.532,1.247
					c-1.105,0.334-2.365,0.36-3.316-0.578c-0.026-0.026-0.064-0.064-0.09-0.09c-2.121-2.288,0.733-6.966,3.637-8.315
					c2.185-1.028,5.603-3.521,7.84-3.457c0.733,0.026,1.337,0.308,1.735,1.028C232.638,145.373,234.836,153.56,234.515,155.603z"/>
				<path fill="#A69AEF" d="M254.754,228.635c-0.964,2.163-2.673,3.82-5.295,4.81c-2.596,0.978-5.025,0.909-7.313,0
					c-14.934-5.96-9.38-49.168-12.323-66.865c-0.81-4.833-1.195-7.87-1.195-7.87l5.886-3.107
					C234.232,157.248,262.684,210.847,254.754,228.635z"/>
				<path fill="#FFFFFF" d="M196.588,140.252l12.268-2.751c0,0,0.112,6.245-5.502,6.915
					C197.74,145.085,196.588,140.252,196.588,140.252z"/>
				<path fill="#1C1828" d="M190.81,121.143c0.576,0.822,0.63,2.027,0.164,3.029c-0.443,1.022-1.415,1.821-2.529,2.115
					c-1.118,0.28-2.355,0.048-3.236-0.634c-0.891-0.654-1.424-1.738-1.313-2.736C186.145,126.119,190.384,125.038,190.81,121.143z"
					/>
				<path fill="#1C1828" d="M213.104,117.478c0.576,0.822,0.63,2.027,0.164,3.029c-0.443,1.022-1.415,1.821-2.529,2.115
					c-1.118,0.28-2.355,0.048-3.236-0.634c-0.891-0.654-1.424-1.738-1.313-2.736C208.439,122.453,212.677,121.372,213.104,117.478z"
					/>
			</g>
			<g>
				<path fill="#2F5E84" d="M306.689,210.738c-1.886,13.102-14.012,23.739-27.23,24.715c-3.937,0.281-8.288-0.496-11.481-2.614
					c1.141-2.878,1.241-6.551,0.562-10.753c-1.042-6.452-3.921-14.144-7.61-22.002c8.387-7.544-5.558-18.545-5.558-18.545
					c21.423-10.091,4.731-45.196,4.731-45.196c3.507,1.621,7.113,3.061,10.521,4.831c7.295,3.739,13.995,9.231,17.519,16.642
					c3.524,7.378,3.342,16.874-1.886,23.21C299.262,183.624,308.559,197.62,306.689,210.738z"/>
				<path fill="#4C3DA5" d="M269.593,276.173c-3.309,4.682-10.571,7.626-19.719,9.363c-0.96-26.254-46.387-36.742-46.387-36.742
					c20.265-3.325,44.534-4.434,66.106,1.29C269.593,250.084,282.53,257.926,269.593,276.173z"/>
				<path fill="#F9DCBB" d="M197.979,293.344h-0.017c0,0-15.517,2.366-11.448,46.039l-14.558-40.332
					c0.017,0,0.017-0.017,0.033-0.033c5.112-7.51,1.869-16.609,1.869-16.609c2.448,1.042,9.181,2.349,18.048,3.408v0.017
					C191.907,285.834,195.563,287.356,197.979,293.344z"/>
				<path fill="none" d="M189.955,251.441v0.017c-11.001,24.07-42.813,27.511-42.813,27.511
					c6.369-9.181,11.183-15.799,12.705-17.122C162.411,259.63,173.991,255.097,189.955,251.441z"/>
			</g>
			<path fill="#E6F2F2" d="M113.214,255.085L125.837,407.8c0.143,1.443,2.279,1.337,2.279-0.113V255.085H113.214z"/>
			<polygon fill="#DDD3D5" points="305.31,247.92 277.374,247.92 277.38,232.786 305.702,232.786 			"/>
			<polygon fill="#CCC0C3" points="304.997,255.082 277.485,255.085 277.374,247.92 304.997,247.92 			"/>
			<linearGradient id="SVGID_5_" gradientUnits="userSpaceOnUse" x1="186.6707" y1="696.7687" x2="186.6707" y2="156.0911">
				<stop  offset="0" style="stop-color:#FFECE8"/>
				<stop  offset="1" style="stop-color:#FFFFFF"/>
			</linearGradient>
			<polygon fill="url(#SVGID_5_)" points="279.535,247.922 96.376,247.922 93.806,232.789 279.044,232.789 			"/>
			<rect x="101.661" y="247.922" fill="#DDD3D5" width="175.824" height="7.162"/>
			<path fill="#E6F2F2" d="M238.641,253.684l12.623,152.716c0.143,1.443,2.279,1.337,2.279-0.113V253.684H238.641z"/>
			<path fill="#FFFFFF" d="M214.042,230.213c-0.397,1.522-1.77,2.581-3.342,2.581h-32.342l-8.189-60.481h1.538
				c1.72,0,3.193,1.29,3.424,3.011l6.303,47.694c0.232,1.72,1.704,3.011,3.441,2.994l25.807-0.132
				C212.95,225.862,214.621,228.012,214.042,230.213z"/>
			<path fill="#CDD2D2" d="M178.359,232.793h-64.766c-1.704,0-3.16-1.257-3.408-2.945l-7.941-53.583
				c-0.298-2.084,1.307-3.954,3.424-3.954h64.501L178.359,232.793z"/>
			<g>
				<g>
					<defs>
						<path id="SVGID_6_" d="M131.783,197.339H55.829c-4.4,0-8.001-3.6-8.001-8.001v0c0-4.4,3.6-8.001,8.001-8.001h75.953
							c4.4,0,8.001,3.6,8.001,8.001v0C139.784,193.739,136.183,197.339,131.783,197.339z"/>
					</defs>
					<clipPath id="SVGID_7_">
						<use xlink:href="#SVGID_6_"  overflow="visible"/>
					</clipPath>
					<rect x="47.829" y="181.337" clip-path="url(#SVGID_7_)" fill="#FFFEFE" width="91.955" height="16.002"/>
				</g>
			</g>
			<linearGradient id="SVGID_8_" gradientUnits="userSpaceOnUse" x1="92.7086" y1="696.7687" x2="92.7086" y2="156.0911">
				<stop  offset="0" style="stop-color:#FFECE8"/>
				<stop  offset="1" style="stop-color:#FFFFFF"/>
			</linearGradient>
			<path fill="url(#SVGID_8_)" d="M130.685,219.157H54.732c-4.4,0-8.001-3.6-8.001-8.001v0c0-4.4,3.6-8.001,8.001-8.001h75.953
				c4.4,0,8.001,3.6,8.001,8.001v0C138.686,215.557,135.086,219.157,130.685,219.157z"/>
			<g>
				<path fill="#00ACCB" d="M133.596,200.264H57.642c-4.754,0-8.621-3.868-8.621-8.622s3.867-8.621,8.621-8.621h75.954
					c4.753,0,8.62,3.868,8.62,8.621S138.349,200.264,133.596,200.264z M57.642,184.262c-4.07,0-7.381,3.311-7.381,7.381
					c0,4.07,3.311,7.381,7.381,7.381h75.954c4.07,0,7.38-3.311,7.38-7.381c0-4.07-3.31-7.381-7.38-7.381H57.642z"/>
			</g>
			<g>
				<g>
					<path fill="#00ACCB" d="M132.497,222.082H56.545c-4.754,0-8.622-3.868-8.622-8.622c0-4.753,3.868-8.62,8.622-8.62h75.952
						c4.755,0,8.622,3.868,8.622,8.62C141.119,218.215,137.252,222.082,132.497,222.082z M56.545,206.08
						c-4.07,0-7.381,3.31-7.381,7.38s3.312,7.381,7.381,7.381h75.952c4.07,0,7.381-3.312,7.381-7.381s-3.312-7.38-7.381-7.38H56.545
						z"/>
				</g>
			</g>
			<g>
				<g>
					<path fill="#00EBE2" d="M44.628,189.808c-5.49,0-9.956-4.466-9.956-9.956c0-5.49,4.467-9.956,9.956-9.956
						s9.956,4.466,9.956,9.956C54.584,185.342,50.117,189.808,44.628,189.808z M44.628,172.467c-4.073,0-7.386,3.313-7.386,7.385
						c0,4.073,3.313,7.386,7.386,7.386s7.386-3.313,7.386-7.386C52.014,175.78,48.7,172.467,44.628,172.467z"/>
				</g>
				<g>
					<path fill="#00EBE2" d="M43.212,185.549c-0.001,0-0.003,0-0.005,0c-0.343-0.001-0.671-0.14-0.912-0.385l-3.985-4.058
						c-0.497-0.506-0.489-1.32,0.018-1.817c0.505-0.498,1.318-0.491,1.817,0.016l3.074,3.13l5.899-5.923
						c0.501-0.502,1.315-0.505,1.819-0.004c0.502,0.501,0.505,1.315,0.004,1.817l-6.816,6.844
						C43.881,185.413,43.554,185.549,43.212,185.549z"/>
				</g>
				<g>
					<path fill="#00EBE2" d="M43.928,213.388c-5.49,0-9.956-4.466-9.956-9.956c0-5.49,4.467-9.956,9.956-9.956
						s9.956,4.466,9.956,9.956C53.884,208.922,49.417,213.388,43.928,213.388z M43.928,196.046c-4.073,0-7.386,3.313-7.386,7.385
						c0,4.073,3.313,7.386,7.386,7.386s7.386-3.313,7.386-7.386C51.314,199.36,48,196.046,43.928,196.046z"/>
				</g>
				<g>
					<path fill="#00EBE2" d="M42.512,209.129c-0.001,0-0.003,0-0.005,0c-0.343-0.001-0.671-0.14-0.912-0.385l-3.985-4.058
						c-0.497-0.506-0.489-1.32,0.018-1.817c0.505-0.498,1.318-0.491,1.817,0.016l3.074,3.13l5.899-5.923
						c0.501-0.502,1.315-0.505,1.819-0.004c0.502,0.501,0.505,1.315,0.004,1.817l-6.816,6.844
						C43.181,208.993,42.853,209.129,42.512,209.129z"/>
				</g>
			</g>
			<linearGradient id="SVGID_9_" gradientUnits="userSpaceOnUse" x1="291.0266" y1="96.5362" x2="359.3818" y2="96.5362">
				<stop  offset="0" style="stop-color:#0492A1"/>
				<stop  offset="1" style="stop-color:#54CDBA"/>
			</linearGradient>
			
				<rect x="291.152" y="86.053" fill="none" stroke="url(#SVGID_9_)" stroke-width="0.25" stroke-miterlimit="10" width="68.105" height="20.967"/>
			
				<rect x="248.487" y="84.268" fill="none" stroke="#FFFFFF" stroke-width="0.25" stroke-miterlimit="10" width="38.247" height="34.201"/>
			<path fill="#CED8D8" d="M121.453,193.476H56.625c-0.313,0-0.569-0.256-0.569-0.57l0,0c0-0.313,0.256-0.569,0.569-0.569h64.829
				c0.313,0,0.569,0.256,0.569,0.569l0,0C122.023,193.22,121.766,193.476,121.453,193.476z"/>
			<path fill="#CED8D8" d="M115.994,189.338H56.675c-0.341,0-0.62-0.279-0.62-0.62l0,0c0-0.341,0.279-0.62,0.62-0.62h59.319
				c0.341,0,0.62,0.279,0.62,0.62l0,0C116.614,189.059,116.335,189.338,115.994,189.338z"/>
			<path fill="#CED8D8" d="M116.08,209.129H56.588c-0.293,0-0.533-0.24-0.533-0.533l0,0c0-0.293,0.24-0.533,0.533-0.533h59.492
				c0.293,0,0.533,0.24,0.533,0.533l0,0C116.614,208.889,116.374,209.129,116.08,209.129z"/>
			<path fill="#CED8D8" d="M129.564,213.388H57.492c-0.422,0-0.768-0.345-0.768-0.768l0,0c0-0.422,0.345-0.768,0.768-0.768h72.072
				c0.422,0,0.768,0.345,0.768,0.768l0,0C130.331,213.043,129.986,213.388,129.564,213.388z"/>
			<path fill="#F5F7F7" d="M281.031,88.562h-29.108c-0.23,0-0.418-0.188-0.418-0.418l0,0c0-0.23,0.188-0.418,0.418-0.418h29.108
				c0.23,0,0.418,0.188,0.418,0.418l0,0C281.449,88.374,281.261,88.562,281.031,88.562z"/>
			<path fill="#F5F7F7" d="M281.031,94.585h-29.108c-0.23,0-0.418-0.188-0.418-0.418l0,0c0-0.23,0.188-0.418,0.418-0.418h29.108
				c0.23,0,0.418,0.188,0.418,0.418l0,0C281.449,94.396,281.261,94.585,281.031,94.585z"/>
			<path fill="#F5F7F7" d="M281.254,100.997h-29.108c-0.23,0-0.418-0.188-0.418-0.418l0,0c0-0.23,0.188-0.418,0.418-0.418h29.108
				c0.23,0,0.418,0.188,0.418,0.418l0,0C281.672,100.809,281.484,100.997,281.254,100.997z"/>
			<path fill="#F5F7F7" d="M264.999,107.02h-12.853c-0.23,0-0.418-0.188-0.418-0.418l0,0c0-0.23,0.188-0.418,0.418-0.418h12.853
				c0.23,0,0.418,0.188,0.418,0.418l0,0C265.417,106.831,265.229,107.02,264.999,107.02z"/>
		</g>
	</g>
</g>
<g id="DESIGNED_BY_FREEPIK">
</g>
</svg>
