<?xml version="1.0"?>
<svg xmlns="http://www.w3.org/2000/svg" height="512px" viewBox="-26 1 511 511.999" width="512px"><path d="m390.667969 336.230469c-42.921875-18.238281-99.820313-28.28125-160.222657-28.28125-60.402343 0-117.304687 10.042969-160.226562 28.28125-44.960938 19.105469-69.71875 45.296875-69.71875 73.742187 0 28.449219 24.757812 54.636719 69.71875 73.742188 42.921875 18.238281 99.824219 28.285156 160.226562 28.285156 60.398438 0 117.300782-10.046875 160.222657-28.285156 44.960937-19.105469 69.71875-45.292969 69.71875-73.742188 0-28.445312-24.757813-54.636718-69.71875-73.742187zm-5.867188 133.679687c-41.105469 17.46875-95.925781 27.085938-154.355469 27.085938-58.433593 0-113.253906-9.617188-154.359374-27.085938-38.503907-16.359375-60.585938-38.207031-60.585938-59.9375 0-21.726562 22.082031-43.574218 60.585938-59.933594 41.105468-17.46875 95.925781-27.089843 154.359374-27.089843 58.429688 0 113.25 9.621093 154.355469 27.089843 38.503907 16.359376 60.585938 38.207032 60.585938 59.933594 0 21.730469-22.082031 43.578125-60.585938 59.9375zm0 0" fill="#FFFFFF"/><path d="m146.835938 157.566406h34.742187l-28.140625 41.578125h-30.101562v15.003907h19.949218l-12.5625 18.566406h69.210938v63.214844h15v-63.214844h31.027344v63.214844h15v-63.214844h69.210937l-50.855469-75.148438h34.738282l-46.460938-68.664062h23.015625l-60.160156-88.902344-60.164063 88.902344h23.015625zm83.613281-130.800781 31.894531 47.136719h-23.011719l46.460938 68.664062h-34.738281l50.855468 75.148438h-142.925781l40.703125-60.148438h37.371094v-15h-61.957032l36.3125-53.664062h13.921876v-15h-26.785157zm0 0" fill="#FFFFFF"/><path d="m101.894531 278.023438v31.914062h15v-31.914062h24.121094v23.761718h15.003906v-23.761718h28.6875v-15.003907h-114.371093l43.222656-63.875h-29.527344l39.496094-58.359375h-19.5625l24.992187-36.929687 17.882813 26.425781 12.421875-8.40625-30.304688-44.785156-53.257812 78.695312h19.5625l-39.492188 58.363282h29.527344l-43.226563 63.875zm0 0" fill="#FFFFFF"/><path d="m327.394531 269.421875h-32.925781l-16.726562 16.722656v12.078125h15.003906v-5.867187l7.933594-7.933594h20.5l7.9375 7.933594v17.582031h15v-3.28125l6.90625-6.910156h12.195312l6.910156 6.910156v11.175781h15v-17.390625l-15.695312-15.695312h-24.621094l-1.046875 1.046875zm0 0" fill="#FFFFFF"/><path d="m281.429688 392.320312c-.730469 0-1.449219-.007812-2.144532-.019531l.28125-15c.625.011719 1.253906.019531 1.9375.019531 11.59375 0 16.988282-1.738281 23.234375-3.75 6.511719-2.097656 13.886719-4.472656 27.832031-4.472656 13.945313 0 21.324219 2.375 27.832032 4.472656 6.25 2.011719 11.648437 3.746094 23.238281 3.746094v15.003906c-13.945313 0-21.324219-2.375-27.835937-4.472656-6.246094-2.011718-11.644532-3.75-23.234376-3.75-11.589843 0-16.984374 1.738282-23.230468 3.75-6.511719 2.097656-13.890625 4.472656-27.832032 4.472656-.027343 0-.050781 0-.078124 0zm-13.003907-.835937c-6.171875-.875-10.53125-2.277344-14.75-3.636719l-.980469-.3125 4.578126-14.285156 1 .320312c3.78125 1.21875 7.355468 2.367188 12.253906 3.0625zm-24.472656-6.277344c-3.9375-.746093-8.355469-1.105469-13.507813-1.105469v-15.003906c6.09375 0 11.425782.449219 16.289063 1.367188zm0 0" fill="#FFFFFF"/><path d="m182.375 440.421875c-13.941406 0-21.320312-2.375-27.832031-4.472656-6.246094-2.011719-11.644531-3.75-23.230469-3.75-.664062 0-1.3125.007812-1.941406.019531l-.28125-15c.71875-.011719 1.460937-.019531 2.222656-.019531 13.945312 0 21.320312 2.375 27.828125 4.472656 6.25 2.007813 11.644531 3.746094 23.234375 3.746094 11.585938 0 16.984375-1.734375 23.230469-3.746094 6.511719-2.097656 13.886719-4.472656 27.832031-4.472656v15c-11.589844 0-16.984375 1.738281-23.234375 3.75-6.507813 2.097656-13.886719 4.472656-27.828125 4.472656zm-102.125 0v-15.003906c5.152344 0 9.570312-.359375 13.507812-1.101563l2.785157 14.738282c-4.867188.917968-10.195313 1.367187-16.292969 1.367187zm26.828125-4.152344-4.574219-14.285156.976563-.3125c4.21875-1.359375 8.578125-2.761719 14.75-3.636719l2.101562 14.855469c-4.898437.691406-8.46875 1.84375-12.253906 3.058594zm0 0" fill="#FFFFFF"/><path d="m276.585938 207.03125h-36.769532v-15.003906h36.769532zm-46.769532 0h-15v-15.003906h15zm-25 0h-15v-15.003906h15zm0 0" fill="#FFFFFF"/><path d="m166.234375 256.191406h-23.753906v-15.003906h23.753906zm-33.753906 0h-15v-15.003906h15zm-25 0h-15v-15.003906h15zm0 0" fill="#FFFFFF"/></svg>
